<svg width="20" height="20" viewBox="0 0 20 20" fill="none" xmlns="http://www.w3.org/2000/svg">
<path fill-rule="evenodd" clip-rule="evenodd" d="M10.1942 3.71209C10.5603 4.0782 10.5603 4.6718 10.1942 5.03791L5.23208 10L10.1942 14.9621C10.5603 15.3282 10.5603 15.9218 10.1942 16.2879C9.82805 16.654 9.23445 16.654 8.86834 16.2879L3.24334 10.6629C2.87722 10.2968 2.87722 9.7032 3.24334 9.33709L8.86834 3.71209C9.23445 3.34597 9.82805 3.34597 10.1942 3.71209Z" fill="#4FBA69"/>
<path fill-rule="evenodd" clip-rule="evenodd" d="M3.75 10C3.75 9.48223 4.16973 9.0625 4.6875 9.0625H16.0938C16.6115 9.0625 17.0312 9.48223 17.0312 10C17.0312 10.5178 16.6115 10.9375 16.0938 10.9375H4.6875C4.16973 10.9375 3.75 10.5178 3.75 10Z" fill="#4FBA69"/>
</svg>
