<svg width="196" height="196" viewBox="0 0 196 196" fill="none" xmlns="http://www.w3.org/2000/svg">
<mask id="mask0" mask-type="alpha" maskUnits="userSpaceOnUse" x="13" y="11" width="170" height="174">
<ellipse cx="97.9997" cy="98" rx="84.28" ry="86.8866" fill="#2A2B2B"/>
</mask>
<g mask="url(#mask0)">
<ellipse opacity="0.6" cx="97.9997" cy="98" rx="84.28" ry="86.8866" fill="#E3E3E3"/>
<g filter="url(#filter0_d)">
<path d="M36.0801 74.5566C36.0801 63.5109 45.0344 54.5566 56.0801 54.5566H139.92C150.966 54.5566 159.92 63.5109 159.92 74.5566V238.869H36.0801V74.5566Z" fill="white"/>
<rect opacity="0.6" x="47.2598" y="69.6288" width="88.58" height="7.09279" rx="2" fill="#B7B7B7"/>
<g clip-path="url(#clip0)">
<rect opacity="0.7" x="48.2988" y="92.7299" width="103" height="47" rx="2" fill="#E3E3E3"/>
<rect opacity="0.6" x="48.2988" y="144.73" width="103" height="7" rx="2" fill="#B7B7B7"/>
<path d="M102.535 105.979H81.4255C80.1297 105.979 79.0801 107.061 79.0801 108.397V118.069C79.0801 119.405 80.1297 120.487 81.4255 120.487H102.535C103.83 120.487 104.88 119.405 104.88 118.069V108.397C104.88 107.061 103.83 105.979 102.535 105.979ZM90.8073 114.442H87.2892V118.069H84.9437V114.442H81.4255V112.024H84.9437V108.397H87.2892V112.024H90.8073V114.442ZM96.0846 116.86C95.1113 116.86 94.3255 116.05 94.3255 115.047C94.3255 114.043 95.1113 113.233 96.0846 113.233C97.058 113.233 97.8437 114.043 97.8437 115.047C97.8437 116.05 97.058 116.86 96.0846 116.86ZM100.776 113.233C99.8022 113.233 99.0164 112.423 99.0164 111.42C99.0164 110.416 99.8022 109.606 100.776 109.606C101.749 109.606 102.535 110.416 102.535 111.42C102.535 112.423 101.749 113.233 100.776 113.233Z" fill="#B7B7B7"/>
</g>
<g clip-path="url(#clip1)">
<rect opacity="0.7" x="47.418" y="159.75" width="23.3239" height="23.3239" rx="2" fill="#E3E3E3"/>
<path d="M55.001 165.381V176.021L62.741 170.701L55.001 165.381Z" fill="#D4D4D4"/>
<rect opacity="0.6" x="75.8125" y="163.806" width="46.6479" height="5.07042" rx="2" fill="#B7B7B7"/>
<rect opacity="0.6" x="75.8125" y="173.947" width="25.8592" height="5.07042" rx="2" fill="#B7B7B7"/>
<rect opacity="0.7" x="139.192" y="159.75" width="23.3239" height="23.3239" rx="2" fill="#B7B7B7"/>
</g>
</g>
</g>
<g filter="url(#filter1_d)">
<rect x="132.4" y="133.464" width="39.56" height="40.7835" rx="19.78" fill="#B7B7B7"/>
</g>
<path d="M144.87 161.835C144.44 161.835 144.01 161.746 143.58 161.48C142.376 160.771 141.946 159.087 142.634 157.845L149.944 145.256C150.202 144.901 150.46 144.546 150.804 144.369C151.406 144.014 152.094 143.926 152.782 144.103C153.47 144.28 153.986 144.724 154.416 145.344L161.64 157.845C161.898 158.289 161.984 158.732 161.984 159.175C161.984 159.885 161.726 160.594 161.21 161.037C160.78 161.569 160.178 161.835 159.49 161.835H144.87ZM151.406 146.231L144.182 158.732C143.924 159.175 144.096 159.707 144.526 159.973C144.612 160.062 144.784 160.062 144.87 160.062H159.404C159.662 160.062 159.834 159.973 160.006 159.796C160.178 159.619 160.264 159.441 160.264 159.175C160.264 158.998 160.264 158.909 160.178 158.732L152.954 146.231C152.696 145.788 152.18 145.699 151.75 145.876C151.578 145.965 151.492 146.054 151.406 146.231Z" fill="#E3E3E3"/>
<path fill-rule="evenodd" clip-rule="evenodd" d="M151.406 146.231L144.182 158.732C143.924 159.175 144.096 159.707 144.526 159.973C144.612 160.062 144.784 160.062 144.87 160.062H159.404C159.662 160.062 159.834 159.973 160.006 159.796C160.178 159.619 160.264 159.441 160.264 159.175C160.264 158.998 160.264 158.909 160.178 158.732L152.954 146.231C152.696 145.788 152.18 145.699 151.75 145.876C151.578 145.965 151.492 146.054 151.406 146.231ZM151.32 153.856C151.32 154.388 151.664 154.742 152.18 154.742C152.696 154.742 153.04 154.388 153.04 153.856V150.309C153.04 149.777 152.696 149.423 152.18 149.423C151.664 149.423 151.32 149.777 151.32 150.309V153.856ZM151.578 158.023C151.75 158.2 151.922 158.289 152.18 158.289C152.438 158.289 152.61 158.2 152.868 158.023C153.04 157.845 153.126 157.668 153.126 157.402C153.126 157.313 153.04 157.136 153.04 157.047C153.04 156.959 152.954 156.87 152.868 156.781C152.782 156.781 152.696 156.693 152.696 156.693C152.61 156.604 152.61 156.604 152.524 156.604C152.438 156.515 152.438 156.515 152.352 156.515C152.18 156.515 152.008 156.515 151.836 156.604C151.75 156.604 151.664 156.693 151.578 156.781C151.492 156.87 151.492 156.959 151.406 157.047C151.32 157.136 151.32 157.313 151.32 157.402C151.32 157.668 151.406 157.845 151.578 158.023Z" fill="#E3E3E3"/>
<defs>
<filter id="filter0_d" x="-11.9199" y="30.5566" width="219.84" height="280.312" filterUnits="userSpaceOnUse" color-interpolation-filters="sRGB">
<feFlood flood-opacity="0" result="BackgroundImageFix"/>
<feColorMatrix in="SourceAlpha" type="matrix" values="0 0 0 0 0 0 0 0 0 0 0 0 0 0 0 0 0 0 127 0"/>
<feOffset dy="24"/>
<feGaussianBlur stdDeviation="24"/>
<feColorMatrix type="matrix" values="0 0 0 0 0 0 0 0 0 0 0 0 0 0 0 0 0 0 0.24 0"/>
<feBlend mode="normal" in2="BackgroundImageFix" result="effect1_dropShadow"/>
<feBlend mode="normal" in="SourceGraphic" in2="effect1_dropShadow" result="shape"/>
</filter>
<filter id="filter1_d" x="122.4" y="127.464" width="59.56" height="60.7835" filterUnits="userSpaceOnUse" color-interpolation-filters="sRGB">
<feFlood flood-opacity="0" result="BackgroundImageFix"/>
<feColorMatrix in="SourceAlpha" type="matrix" values="0 0 0 0 0 0 0 0 0 0 0 0 0 0 0 0 0 0 127 0"/>
<feOffset dy="4"/>
<feGaussianBlur stdDeviation="5"/>
<feColorMatrix type="matrix" values="0 0 0 0 0 0 0 0 0 0 0 0 0 0 0 0 0 0 0.1 0"/>
<feBlend mode="normal" in2="BackgroundImageFix" result="effect1_dropShadow"/>
<feBlend mode="normal" in="SourceGraphic" in2="effect1_dropShadow" result="shape"/>
</filter>
<clipPath id="clip0">
<rect width="114.247" height="54.3947" fill="white" transform="translate(40.876 92.2932)"/>
</clipPath>
<clipPath id="clip1">
<rect width="107.706" height="48.5506" fill="white" transform="translate(47.418 159.75)"/>
</clipPath>
</defs>
</svg>
